<?xml version="1.0" encoding="UTF-8"?>
<!--created by Ingo Michalak for the joint project "Politisch Motivierte Kriminalität in Berlin" with Chaosfabrik-->
<svg xmlns="http://www.w3.org/2000/svg"
	xmlns:xlink="http://www.w3.org/1999/xlink"
	width="1100" height="1580" 
	viewBox="0  0   1100  1580"><!--style="outline:5px solid #630;"preserveAspectRatio="xMidYMid meet"-->
	<defs>
		<style type="text/css">@import url(http://fonts.googleapis.com/css?family=Exo+2);</style>
	</defs>
    <g ><!--fill="transparent"-->
        <rect width="450" height="120" x="50" y="50"   fill="#F40515"/><!--SPD--><!--"#926037"d="M50 50 L200 300 450 50"-->
		<rect width="450" height="120" x="50" y="230"  fill="#202020"/><!--CDU-->
		<rect width="450" height="120" x="50" y="410"  fill="#42A62A"/><!--gruen-->
		<rect width="450" height="120" x="50" y="590"  fill="#8B1B62"/><!--links-->
		<rect width="450" height="120" x="50" y="770"  fill="#009DE0"/><!--afd-->
		<rect width="450" height="120" x="50" y="950"  fill="#FEED01"/><!--FDP-->
		<rect width="450" height="120" x="50" y="1130" fill="#F68920"/><!--Piraten-->
		<rect width="450" height="120" x="50" y="1310" fill="#CCCCCC"/><!--Piraten-->
		
        <!--path d="M50 270 L250 100 450 250" stroke="#752C4D" /--><!--"#923760"-->
        <!--path d="M50 450 L270 350 450 450" stroke="#4D752C"/--><!--"#609237" -->
    </g>
    <g style="font-family: 'Exo 2'; font-weight: normal; font-style: normal" font-size="100" fill="#c7c5c5">
		<text x="550" y="145">SPD</text>
		<text x="550" y="325">CDU</text>
        <text x="550" y="505">Die Grünen</text>
		<text x="550" y="685">DIE LINKE</text>
		<text x="550" y="865">AfD</text>
		<text x="550" y="1045">FDP</text>
		<text x="550" y="1225">Piraten</text>
		<text x="550" y="1405">Sonstige</text>
    </g>
</svg>

